<svg width="97" height="97" viewBox="0 0 97 97" fill="none" xmlns="http://www.w3.org/2000/svg">
<circle cx="48.8218" cy="48.29" r="48" fill="black"/>
<path d="M33.7062 81.0065C31.1827 81.0065 29.2649 79.0382 29.2649 76.5652C29.2649 74.0922 31.1827 72.1743 33.7062 72.1743C36.1792 72.1743 38.0971 74.0922 38.0971 76.5652C38.0971 79.0382 36.1792 81.0065 33.7062 81.0065ZM44.4057 76.5652C44.4057 74.0922 46.3236 72.1743 48.8471 72.1743C51.3201 72.1743 53.2379 74.0922 53.2379 76.5652C53.2379 79.0382 51.3201 81.0065 48.8471 81.0065C46.3236 81.0065 44.4057 79.0382 44.4057 76.5652ZM59.5466 76.5652C59.5466 74.0922 61.4645 72.1743 63.9879 72.1743C66.4609 72.1743 68.3788 74.0922 68.3788 76.5652C68.3788 79.0382 66.4609 81.0065 63.9879 81.0065C61.4645 81.0065 59.5466 79.0382 59.5466 76.5652Z" fill="white"/>
<path d="M48.9635 57.6286C56.5391 57.6286 59.0171 54.7258 59.0171 51.7522C59.0171 49.0618 57.1055 47.2918 53.2115 46.3714L44.9987 44.389C37.3522 42.5482 31.6882 38.371 31.6882 30.1581C31.6882 21.1665 39.4055 15.5732 49.4591 15.5732C60.2208 15.5732 65.9556 21.5205 67.938 27.1137L59.6543 31.2909C58.8755 28.0341 55.7603 24.0693 49.4591 24.0693C44.0075 24.0693 40.9631 26.6181 40.9631 29.9457C40.9631 32.7777 43.1579 34.4061 46.5563 35.1849L55.8311 37.4505C64.1856 39.5038 68.5044 44.5306 68.5044 51.3274C68.5044 59.1863 62.274 66.4079 48.7511 66.4079C37.423 66.4079 31.1926 59.9651 29.1394 54.5842L36.9982 50.053C38.3434 54.3718 43.2287 57.6286 48.9635 57.6286Z" fill="white"/>
</svg>
